<svg xmlns="http://www.w3.org/2000/svg" width="43.499" height="39.91" viewBox="0 0 43.499 39.91">
  <path id="favorite_FILL0_wght400_GRAD0_opsz24" d="M101.75-814.09,98.6-816.917q-5.492-4.948-9.08-8.537a60.156,60.156,0,0,1-5.709-6.443,20.471,20.471,0,0,1-2.963-5.247A14.628,14.628,0,0,1,80-842.038a11.586,11.586,0,0,1,3.426-8.537A11.586,11.586,0,0,1,91.962-854a12.547,12.547,0,0,1,5.383,1.2,12.9,12.9,0,0,1,4.4,3.371,12.9,12.9,0,0,1,4.4-3.371,12.547,12.547,0,0,1,5.383-1.2,11.586,11.586,0,0,1,8.537,3.426,11.586,11.586,0,0,1,3.426,8.537,14.627,14.627,0,0,1-.843,4.894,20.47,20.47,0,0,1-2.963,5.247,60.154,60.154,0,0,1-5.709,6.443q-3.589,3.589-9.08,8.537Zm0-5.872q5.22-4.676,8.591-8.02a67.764,67.764,0,0,0,5.329-5.818,18.182,18.182,0,0,0,2.719-4.4,10.389,10.389,0,0,0,.761-3.833,7.377,7.377,0,0,0-2.175-5.437,7.377,7.377,0,0,0-5.437-2.175,8.4,8.4,0,0,0-4.731,1.441,7.411,7.411,0,0,0-2.991,3.67H99.683a7.411,7.411,0,0,0-2.991-3.67,8.4,8.4,0,0,0-4.731-1.441,7.377,7.377,0,0,0-5.437,2.175,7.377,7.377,0,0,0-2.175,5.437,10.389,10.389,0,0,0,.761,3.833,18.181,18.181,0,0,0,2.719,4.4,67.763,67.763,0,0,0,5.329,5.818Q96.53-824.638,101.75-819.962ZM101.75-834.806Z" transform="translate(-80 854)" fill="#acb69c"/>
</svg>
