<svg xmlns="http://www.w3.org/2000/svg" width="50.23" height="50.23" viewBox="0 0 50.23 50.23">
  <path id="add_circle_FILL1_wght400_GRAD0_opsz48_1_" data-name="add_circle_FILL1_wght400_GRAD0_opsz48 (1)" d="M29.115,54.23a25.473,25.473,0,0,1-9.92-1.915,24.308,24.308,0,0,1-13.28-13.28A25.473,25.473,0,0,1,4,29.115a25.31,25.31,0,0,1,1.915-9.858,24.512,24.512,0,0,1,5.306-7.974A25.039,25.039,0,0,1,29.115,4,24.914,24.914,0,0,1,54.23,29.115a25.039,25.039,0,0,1-7.283,17.894,24.512,24.512,0,0,1-7.974,5.306A25.31,25.31,0,0,1,29.115,54.23Zm-1.7-12.558h3.767V31.25H41.672V27.483H31.187V16.557H27.42V27.483H16.557V31.25H27.42Z" transform="translate(-4 -4)" fill="#fff"/>
</svg>
