<svg xmlns="http://www.w3.org/2000/svg" width="36.8" height="46" viewBox="0 0 36.8 46">
  <path id="Call_Icon" data-name="Call Icon" d="M26.4,31.6a4.594,4.594,0,0,0,3.249-7.849,4.594,4.594,0,1,0-6.5,6.5A4.429,4.429,0,0,0,26.4,31.6Zm-9.2,9.2H35.6V39.477a4.595,4.595,0,0,0-2.817-4.255,17.4,17.4,0,0,0-3.076-.977,16.015,16.015,0,0,0-6.612,0,17.4,17.4,0,0,0-3.076.977A4.595,4.595,0,0,0,17.2,39.477ZM41.35,50H11.45a3.31,3.31,0,0,1-2.415-1.035A3.31,3.31,0,0,1,8,46.55V7.45A3.31,3.31,0,0,1,9.035,5.035,3.31,3.31,0,0,1,11.45,4H31.057L44.8,17.742V46.55A3.537,3.537,0,0,1,41.35,50Z" transform="translate(-8 -4)"/>
</svg>
