<svg xmlns="http://www.w3.org/2000/svg" width="45.46" height="46.17" viewBox="0 0 45.46 46.17">
  <path id="Cart_Icon" data-name="Cart Icon" d="M16.187,50.17a4.161,4.161,0,1,1,2.918-7.108,3.966,3.966,0,0,1,1.242,2.947,4.143,4.143,0,0,1-4.16,4.16Zm23.114,0a4.161,4.161,0,1,1,2.918-7.108,3.966,3.966,0,0,1,1.242,2.947,4.143,4.143,0,0,1-4.16,4.16ZM13.182,12.032l6.356,13.175H36.181L43.4,12.032H13.182ZM11.449,8.565H45.484q1.849,0,2.34,1.127a2.694,2.694,0,0,1-.318,2.514l-7.8,14.042a5.43,5.43,0,0,1-1.618,1.7,3.872,3.872,0,0,1-2.254.722H18.325l-3.236,6.01H43.461v3.467H15.609a3.878,3.878,0,0,1-3.5-1.618,3.325,3.325,0,0,1,.029-3.64l3.7-6.819L7.057,7.467H2.55V4H9.311Zm8.09,16.642L13.182,12.032H43.4L36.181,25.207Z" transform="translate(-2.55 -4)"/>
</svg>
