<svg xmlns="http://www.w3.org/2000/svg" width="48.897" height="49.833" viewBox="0 0 48.897 49.833">
  <path id="shopping_cart_FILL1_wght400_GRAD0_opsz48_3_" data-name="shopping_cart_FILL1_wght400_GRAD0_opsz48 (3)" d="M17.269,53.833a4.491,4.491,0,1,1,3.181-7.671,4.491,4.491,0,0,1-3.181,7.671Zm24.948,0a4.472,4.472,0,1,1,3.181-1.31A4.331,4.331,0,0,1,42.217,53.833ZM12.155,8.927H48.89a2.379,2.379,0,0,1,2.183,1.31,2.479,2.479,0,0,1,0,2.62l-8.42,15.156a5.582,5.582,0,0,1-1.778,1.9,4.282,4.282,0,0,1-2.4.717h-18.9l-3.493,6.486H46.707V40.86H16.645a4.186,4.186,0,0,1-3.773-1.746,3.588,3.588,0,0,1,.031-3.929l3.992-7.36L7.415,7.742H2.55V4h7.3Z" transform="translate(-2.55 -4)" fill="#747474"/>
</svg>
