<svg xmlns="http://www.w3.org/2000/svg" width="35.867" height="44.834" viewBox="0 0 35.867 44.834">
  <path id="contact_page_FILL1_wght400_GRAD0_opsz48" d="M25.934,30.9a4.478,4.478,0,0,0,3.166-7.65,4.478,4.478,0,1,0-6.333,6.333A4.317,4.317,0,0,0,25.934,30.9Zm-8.967,8.967H34.9V38.578a4.478,4.478,0,0,0-2.746-4.147,16.955,16.955,0,0,0-3-.953,15.609,15.609,0,0,0-6.445,0,16.955,16.955,0,0,0-3,.953,4.478,4.478,0,0,0-2.746,4.147ZM40.5,48.834H11.363a3.226,3.226,0,0,1-2.354-1.009A3.226,3.226,0,0,1,8,45.471V7.363A3.226,3.226,0,0,1,9.009,5.009,3.226,3.226,0,0,1,11.363,4h19.11L43.867,17.394V45.471A3.448,3.448,0,0,1,40.5,48.834Z" transform="translate(-8 -4)" fill="#747474"/>
</svg>
