<svg xmlns="http://www.w3.org/2000/svg" width="48" height="60" viewBox="0 0 48 60">
  <path id="contact_page_FILL1_wght400_GRAD0_opsz48" d="M32,40a5.993,5.993,0,0,0,4.238-10.238,5.993,5.993,0,1,0-8.475,8.475A5.778,5.778,0,0,0,32,40ZM20,52H44V50.275a5.993,5.993,0,0,0-3.675-5.55,22.689,22.689,0,0,0-4.012-1.275,20.889,20.889,0,0,0-8.625,0,22.69,22.69,0,0,0-4.012,1.275A5.993,5.993,0,0,0,20,50.275ZM51.5,64h-39a4.317,4.317,0,0,1-3.15-1.35A4.317,4.317,0,0,1,8,59.5V8.5A4.317,4.317,0,0,1,9.35,5.35,4.317,4.317,0,0,1,12.5,4H38.075L56,21.925V59.5A4.614,4.614,0,0,1,51.5,64Z" transform="translate(-8 -4)" fill="#3038ac"/>
</svg>
