<svg xmlns="http://www.w3.org/2000/svg" width="28.889" height="32.5" viewBox="0 0 28.889 32.5">
  <path id="delete_FILL0_wght400_GRAD0_opsz24" d="M165.417-807.5a3.477,3.477,0,0,1-2.55-1.061,3.477,3.477,0,0,1-1.061-2.55v-23.472H160v-3.611h9.028V-840h10.833v1.806h9.028v3.611h-1.806v23.472a3.477,3.477,0,0,1-1.061,2.55,3.477,3.477,0,0,1-2.55,1.061Zm18.056-27.083H165.417v23.472h18.056Zm-14.444,19.861h3.611v-16.25h-3.611Zm7.222,0h3.611v-16.25H176.25Zm-10.833-19.861v0Z" transform="translate(-160 840)" fill="#a5a5a5"/>
</svg>
