<svg xmlns="http://www.w3.org/2000/svg" width="61.185" height="56.061" viewBox="0 0 61.185 56.061">
  <path id="favorite_FILL1_wght400_GRAD0_opsz48_2_" data-name="favorite_FILL1_wght400_GRAD0_opsz48 (2)" d="M34.592,61.361l-3.136-2.83Q23.35,51.112,18.073,45.72A94.638,94.638,0,0,1,9.66,36.084a31.826,31.826,0,0,1-4.4-7.686A20.082,20.082,0,0,1,4,21.437,15.807,15.807,0,0,1,20.061,5.3,16.314,16.314,0,0,1,28.13,7.365a19.6,19.6,0,0,1,6.463,5.966A22.3,22.3,0,0,1,41.4,7.25,15.948,15.948,0,0,1,49.124,5.3,15.807,15.807,0,0,1,65.185,21.437a20.082,20.082,0,0,1-1.262,6.96,31.826,31.826,0,0,1-4.4,7.686,94.638,94.638,0,0,1-8.413,9.637q-5.277,5.392-13.384,12.811Z" transform="translate(-4 -5.3)" fill="#3038ac"/>
</svg>
