<svg xmlns="http://www.w3.org/2000/svg" width="71" height="71" viewBox="0 0 71 71">
  <g id="Group_70" data-name="Group 70" transform="translate(-678 -1322)">
    <circle id="Ellipse_18" data-name="Ellipse 18" cx="35.5" cy="35.5" r="35.5" transform="translate(678 1322)" fill="#45a081"/>
    <path id="percent_FILL1_wght400_GRAD0_opsz24" d="M165.577-788.847a5.374,5.374,0,0,1-3.943-1.633A5.374,5.374,0,0,1,160-794.423a5.373,5.373,0,0,1,1.633-3.943A5.373,5.373,0,0,1,165.577-800a5.373,5.373,0,0,1,3.943,1.633,5.373,5.373,0,0,1,1.633,3.943,5.374,5.374,0,0,1-1.633,3.943A5.374,5.374,0,0,1,165.577-788.847Zm0-3.187a2.3,2.3,0,0,0,1.693-.7,2.3,2.3,0,0,0,.7-1.693,2.305,2.305,0,0,0-.7-1.693,2.305,2.305,0,0,0-1.693-.7,2.3,2.3,0,0,0-1.693.7,2.305,2.305,0,0,0-.7,1.693,2.3,2.3,0,0,0,.7,1.693A2.3,2.3,0,0,0,165.577-792.034Zm14.34,17.527a5.374,5.374,0,0,1-3.943-1.633,5.374,5.374,0,0,1-1.633-3.943,5.373,5.373,0,0,1,1.633-3.943,5.373,5.373,0,0,1,3.943-1.633,5.373,5.373,0,0,1,3.943,1.633,5.373,5.373,0,0,1,1.633,3.943,5.374,5.374,0,0,1-1.633,3.943A5.374,5.374,0,0,1,179.917-774.507Zm0-3.187a2.3,2.3,0,0,0,1.693-.7,2.3,2.3,0,0,0,.7-1.693,2.305,2.305,0,0,0-.7-1.693,2.305,2.305,0,0,0-1.693-.7,2.305,2.305,0,0,0-1.693.7,2.305,2.305,0,0,0-.7,1.693,2.3,2.3,0,0,0,.7,1.693A2.3,2.3,0,0,0,179.917-777.694Zm-17.686,3.187L160-776.738,183.262-800l2.231,2.231Z" transform="translate(540.669 2145.446)" fill="#fff"/>
  </g>
</svg>
