<svg xmlns="http://www.w3.org/2000/svg" width="30.5" height="40.031" viewBox="0 0 30.5 40.031">
  <path id="lock_FILL0_wght400_GRAD0_opsz24" d="M163.813-879.969a3.671,3.671,0,0,1-2.693-1.12,3.671,3.671,0,0,1-1.12-2.693v-19.062a3.671,3.671,0,0,1,1.12-2.693,3.671,3.671,0,0,1,2.693-1.12h1.906v-3.812a9.186,9.186,0,0,1,2.788-6.743A9.186,9.186,0,0,1,175.25-920a9.186,9.186,0,0,1,6.743,2.788,9.186,9.186,0,0,1,2.788,6.743v3.813h1.906a3.671,3.671,0,0,1,2.693,1.12,3.671,3.671,0,0,1,1.12,2.693v19.063a3.671,3.671,0,0,1-1.12,2.693,3.671,3.671,0,0,1-2.693,1.12Zm0-3.812h22.875v-19.062H163.813ZM175.25-889.5a3.671,3.671,0,0,0,2.693-1.12,3.671,3.671,0,0,0,1.12-2.693,3.671,3.671,0,0,0-1.12-2.693,3.671,3.671,0,0,0-2.693-1.12,3.671,3.671,0,0,0-2.693,1.12,3.671,3.671,0,0,0-1.12,2.693,3.671,3.671,0,0,0,1.12,2.693A3.671,3.671,0,0,0,175.25-889.5Zm-5.719-17.156h11.438v-3.812a5.515,5.515,0,0,0-1.668-4.051,5.515,5.515,0,0,0-4.051-1.668,5.515,5.515,0,0,0-4.051,1.668,5.515,5.515,0,0,0-1.668,4.051Zm-5.719,22.875v0Z" transform="translate(-160 920)"/>
</svg>
