<svg xmlns="http://www.w3.org/2000/svg" width="36.817" height="43.167" viewBox="0 0 36.817 43.167">
  <path id="inventory_2_FILL1_wght400_GRAD0_opsz48" d="M5.841,43.822V17.274A2.024,2.024,0,0,1,4.6,16.195a3.939,3.939,0,0,1-.6-2.1V7.238A3.417,3.417,0,0,1,4.828,5,2.456,2.456,0,0,1,6.761,4H38.056a2.482,2.482,0,0,1,1.91,1,3.363,3.363,0,0,1,.851,2.239V14.09a3.939,3.939,0,0,1-.6,2.1,2.024,2.024,0,0,1-1.243,1.079V43.822a3.569,3.569,0,0,1-.851,2.293,2.443,2.443,0,0,1-1.91,1.052H8.6a2.418,2.418,0,0,1-1.933-1.052A3.629,3.629,0,0,1,5.841,43.822ZM38.056,14.09V7.238H6.761V14.09ZM16.886,28.659H27.931V25.422H16.886Z" transform="translate(-4 -4)" fill="#747474"/>
</svg>
