<svg xmlns="http://www.w3.org/2000/svg" width="43" height="60" viewBox="0 0 43 60">
  <path id="pin_drop_FILL1_wght400_GRAD0_opsz48" d="M32,53.35Q21.091,45.625,15.8,38.575T10.5,24.7a19.626,19.626,0,0,1,1.951-8.962A20.443,20.443,0,0,1,17.507,9.25a21.421,21.421,0,0,1,6.928-3.937,22.457,22.457,0,0,1,15.13,0A21.421,21.421,0,0,1,46.493,9.25a20.443,20.443,0,0,1,5.056,6.487A19.626,19.626,0,0,1,53.5,24.7q0,6.825-5.3,13.875T32,53.35ZM32,29.5a5.542,5.542,0,0,0,3.942-1.537,5.038,5.038,0,0,0,0-7.425,5.821,5.821,0,0,0-7.883,0,5.038,5.038,0,0,0,0,7.425A5.542,5.542,0,0,0,32,29.5ZM10.5,64V59.5h43V64Z" transform="translate(-10.5 -4)" fill="#10847e"/>
</svg>
