<svg xmlns="http://www.w3.org/2000/svg" width="38.627" height="41.031" viewBox="0 0 38.627 41.031">
  <path id="person_FILL0_wght400_GRAD0_opsz24" d="M179.314-779.484a9.035,9.035,0,0,1-6.82-3.013,10.194,10.194,0,0,1-2.837-7.245,10.194,10.194,0,0,1,2.837-7.245,9.035,9.035,0,0,1,6.82-3.013,9.035,9.035,0,0,1,6.82,3.013,10.194,10.194,0,0,1,2.837,7.245,10.194,10.194,0,0,1-2.837,7.245A9.035,9.035,0,0,1,179.314-779.484ZM160-758.969v-7.18a7.865,7.865,0,0,1,1.056-4.007,7.231,7.231,0,0,1,2.806-2.789,34.538,34.538,0,0,1,7.6-2.981,31.368,31.368,0,0,1,7.846-.994,31.368,31.368,0,0,1,7.846.994,34.538,34.538,0,0,1,7.6,2.981,7.231,7.231,0,0,1,2.806,2.789,7.865,7.865,0,0,1,1.056,4.007v7.18Zm4.828-5.129H193.8v-2.052a2.525,2.525,0,0,0-.332-1.282,2.42,2.42,0,0,0-.875-.9,30.326,30.326,0,0,0-6.579-2.6,26.45,26.45,0,0,0-6.7-.866,26.449,26.449,0,0,0-6.7.866,30.326,30.326,0,0,0-6.579,2.6,2.42,2.42,0,0,0-.875.9,2.525,2.525,0,0,0-.332,1.282Zm14.485-20.516a4.517,4.517,0,0,0,3.41-1.507,5.1,5.1,0,0,0,1.418-3.622,5.1,5.1,0,0,0-1.418-3.622,4.518,4.518,0,0,0-3.41-1.507,4.518,4.518,0,0,0-3.41,1.507,5.1,5.1,0,0,0-1.418,3.622,5.1,5.1,0,0,0,1.418,3.622A4.517,4.517,0,0,0,179.314-784.613ZM179.314-789.742ZM179.314-764.1Z" transform="translate(-160 800)"/>
</svg>
