<svg xmlns="http://www.w3.org/2000/svg" width="60.836" height="62" viewBox="0 0 60.836 62">
  <path id="shopping_cart_FILL1_wght400_GRAD0_opsz48_3_" data-name="shopping_cart_FILL1_wght400_GRAD0_opsz48 (3)" d="M20.863,66a5.587,5.587,0,1,1,3.957-9.544A5.587,5.587,0,0,1,20.863,66ZM51.9,66a5.564,5.564,0,1,1,3.957-1.63A5.388,5.388,0,0,1,51.9,66ZM14.5,10.13H60.2a2.96,2.96,0,0,1,2.716,1.63,3.085,3.085,0,0,1,0,3.259L52.445,33.875a6.944,6.944,0,0,1-2.212,2.367,5.328,5.328,0,0,1-2.987.892H23.734L19.389,45.2h38.1V49.86h-37.4a5.208,5.208,0,0,1-4.695-2.173,4.465,4.465,0,0,1,.039-4.889L20.4,33.642,8.6,8.656H2.55V4h9.079Z" transform="translate(-2.55 -4)" fill="#3038ac"/>
</svg>
