<svg xmlns="http://www.w3.org/2000/svg" width="46.385" height="42.5" viewBox="0 0 46.385 42.5">
  <path id="favorite_FILL1_wght400_GRAD0_opsz48_2_" data-name="favorite_FILL1_wght400_GRAD0_opsz48 (2)" d="M27.192,47.8l-2.377-2.145q-6.146-5.624-10.147-9.712a71.746,71.746,0,0,1-6.378-7.306A24.128,24.128,0,0,1,4.957,22.81,15.224,15.224,0,0,1,4,17.534,11.984,11.984,0,0,1,16.176,5.3a12.368,12.368,0,0,1,6.117,1.565,14.857,14.857,0,0,1,4.9,4.522,16.9,16.9,0,0,1,5.16-4.609A12.09,12.09,0,0,1,38.209,5.3,11.984,11.984,0,0,1,50.385,17.534a15.224,15.224,0,0,1-.957,5.276,24.128,24.128,0,0,1-3.334,5.827,71.746,71.746,0,0,1-6.378,7.306q-4,4.088-10.147,9.712Z" transform="translate(-4 -5.3)" fill="#747474"/>
</svg>
