<svg xmlns="http://www.w3.org/2000/svg" width="45.26" height="41.47" viewBox="0 0 45.26 41.47">
  <path id="Wishlist_Icon" data-name="Wishlist Icon" d="M26.63,46.77l-2.32-2.093q-6-5.488-9.9-9.476a70.007,70.007,0,0,1-6.223-7.129,23.543,23.543,0,0,1-3.253-5.686A14.855,14.855,0,0,1,4,17.237,11.693,11.693,0,0,1,15.881,5.3,12.068,12.068,0,0,1,21.85,6.828,14.5,14.5,0,0,1,26.63,11.24a16.494,16.494,0,0,1,5.035-4.5A11.8,11.8,0,0,1,37.38,5.3,11.693,11.693,0,0,1,49.26,17.237a14.855,14.855,0,0,1-.933,5.148,23.543,23.543,0,0,1-3.253,5.686A70.007,70.007,0,0,1,38.851,35.2q-3.9,3.989-9.9,9.476Z" transform="translate(-4 -5.3)"/>
</svg>
